<?xml version="1.0" encoding="utf-8"?>
<!-- Generator: Adobe Illustrator 21.0.2, SVG Export Plug-In . SVG Version: 6.00 Build 0)  -->
<svg version="1.1" id="App-Logo" xmlns="http://www.w3.org/2000/svg" xmlns:xlink="http://www.w3.org/1999/xlink" x="0px"
	 y="0px" viewBox="0 0 87 87" style="enable-background:new 0 0 87 87;" xml:space="preserve">
<style type="text/css">
	.st0{fill:#BDCD00;}
	.st1{fill:#407FB7;}
	.st2{fill:#00549F;}
</style>
<g id="App-Logo">
	
		<image style="overflow:visible;opacity:0.35;" width="96" height="96" xlink:href="5763A136F8885554.png"  transform="matrix(1 0 0 1 -4.8031 -3.8031)">
	</image>
	<g>
		<g>
			<g id="Fill-1_10_">
				<path class="st0" d="M44.3,42.8V1c4.2,0,7.4,0.4,11.5,1.6L44.3,42.8z"/>
			</g>
			<g id="Fill-3_10_">
				<path class="st1" d="M44.3,42.8l9.9-34.6c8.2,2.4,14.7,6.9,19.6,13.9L44.3,42.8z"/>
			</g>
			<g id="Fill-5_10_">
				<path class="st2" d="M44.3,42.8l-16.9-25c5.1-3.4,10.7-5.2,16.9-5.2V42.8z"/>
			</g>
			<g id="Fill-7_10_">
				<path class="st1" d="M44.3,42.8L14.6,17.9c2.5-3,4.8-5,8-7.2L44.3,42.8z"/>
			</g>
			<g id="Fill-9_10_">
				<path class="st2" d="M44.3,42.8L11.9,32.3c1.4-4.4,3.3-7.8,6.3-11.4L44.3,42.8z"/>
			</g>
			<g id="Fill-11_10_">
				<path class="st0" d="M44.3,42.8L4.6,54.2C2.3,46.1,2.4,38.1,5,30.1L44.3,42.8z"/>
			</g>
			<g id="Fill-13_10_">
				<path class="st1" d="M44.3,42.8l-28.9,18c-1.8-2.9-2.9-5.3-3.9-8.7L44.3,42.8z"/>
			</g>
			<g id="Fill-15_10_">
				<path class="st2" d="M44.3,42.8l-9,39.1c-10.6-2.5-19.2-8.6-25-17.8L44.3,42.8z"/>
			</g>
			<g id="Fill-17_10_">
				<path class="st0" d="M44.3,42.8l33.4-23.4c3.2,4.5,5.1,8.8,6.3,14.2L44.3,42.8z"/>
			</g>
			<g id="Fill-19_10_">
				<path class="st1" d="M44.3,42.8l33.2-7.7c2.1,9,0.8,17.3-4,25.2L44.3,42.8z"/>
			</g>
			<g id="Fill-21_10_">
				<path class="st0" d="M44.3,42.8l23.1,13.9c-1.9,3.1-4.3,5.8-7.3,7.9L44.3,42.8z"/>
			</g>
			<g id="Fill-23_10_">
				<path class="st2" d="M44.3,42.8l22.3,30.7c-6.3,4.6-12.6,6.8-20.3,7.2L44.3,42.8z"/>
			</g>
			<g id="Fill-25_10_">
				<path class="st1" d="M44.3,42.8l1.3,24.1c-2.5,0.1-4.3,0-6.7-0.6L44.3,42.8z"/>
			</g>
		</g>
	</g>
</g>
</svg>
